<?xml version="1.0" standalone="no"?>
<!DOCTYPE svg PUBLIC "-//W3C//DTD SVG 20010904//EN"
 "http://www.w3.org/TR/2001/REC-SVG-20010904/DTD/svg10.dtd">
<svg version="1.0" xmlns="http://www.w3.org/2000/svg"
 width="260.000000pt" height="260.000000pt" viewBox="0 0 260.000000 260.000000"
 preserveAspectRatio="xMidYMid meet">
<metadata>
Created by potrace 1.11, written by Peter Selinger 2001-2013
</metadata>
<g transform="translate(0.000000,260.000000) scale(0.100000,-0.100000)"
fill="#000000" stroke="none">
<path d="M246 2555 c-197 -68 -263 -312 -126 -468 56 -63 118 -90 205 -91 59
0 79 4 125 29 63 35 122 107 140 172 28 97 -5 221 -76 291 -66 65 -187 95
-268 67z"/>
<path d="M1233 2560 c-114 -25 -213 -148 -213 -265 0 -43 -1 -45 -38 -54 -55
-15 -200 -92 -267 -141 -143 -106 -265 -263 -330 -426 l-36 -89 -48 -2 c-99
-3 -203 -84 -236 -184 -66 -196 68 -384 277 -389 11 0 20 -11 24 -27 40 -158
217 -387 386 -499 62 -42 233 -124 257 -124 5 0 9 -18 9 -41 3 -211 217 -346
399 -253 94 48 152 142 155 248 0 42 2 44 42 56 61 18 193 86 261 135 81 58
193 175 247 260 43 66 55 90 106 207 16 38 24 46 40 41 35 -9 125 24 170 62
142 122 142 328 -1 450 -41 36 -117 65 -167 65 -25 0 -30 7 -54 74 -28 75
-104 207 -151 261 -137 157 -269 250 -442 311 l-53 19 0 45 c0 58 -46 156 -91
195 -68 57 -164 82 -246 65z m-80 -526 c23 -15 44 -30 47 -35 4 -5 5 -355 1
-417 -1 -7 -12 -17 -25 -22 -36 -13 -94 -68 -121 -114 -52 -91 -51 -211 4
-300 26 -41 84 -94 117 -106 13 -5 24 -17 25 -27 1 -24 1 -395 0 -410 -1 -6
-20 -22 -44 -35 l-44 -25 -37 51 c-66 89 -105 177 -145 329 -98 369 -36 855
138 1095 17 23 33 42 36 42 3 0 24 -12 48 -26z m359 -6 c142 -187 216 -539
185 -878 -18 -203 -79 -400 -161 -522 -55 -81 -65 -87 -107 -57 l-35 24 0 215
1 215 44 30 c179 120 179 371 0 490 l-45 30 1 218 0 217 40 25 c22 13 43 25
46 25 4 0 18 -15 31 -32z m-655 -55 c-31 -62 -78 -199 -93 -270 -1 -6 -7 -33
-13 -60 -19 -89 -25 -176 -25 -328 -1 -136 9 -289 18 -304 2 -3 7 -24 10 -46
14 -88 65 -245 106 -326 11 -21 20 -41 20 -44 0 -13 -119 77 -167 126 -73 75
-119 140 -163 234 -49 103 -50 113 -18 156 93 122 92 263 -3 382 l-30 38 25
67 c56 145 158 279 286 374 36 26 66 48 68 48 1 0 -8 -21 -21 -47z m962 -27
c106 -80 225 -250 261 -373 12 -41 12 -43 -18 -78 -56 -63 -76 -119 -74 -210
1 -60 29 -129 72 -178 30 -35 31 -38 19 -74 -16 -51 -65 -148 -102 -203 -41
-62 -165 -181 -227 -219 l-50 -31 20 39 c102 201 151 448 145 736 -2 83 -6
161 -9 175 -3 14 -8 41 -10 60 -15 122 -84 340 -134 425 -8 13 39 -17 107 -69z"/>
<path d="M2193 2556 c-125 -40 -203 -145 -203 -275 0 -99 39 -178 116 -234
224 -162 513 70 417 335 -47 132 -203 214 -330 174z"/>
<path d="M251 599 c-83 -25 -159 -99 -186 -180 -47 -140 11 -288 136 -352 253
-129 509 169 354 412 -62 97 -199 151 -304 120z"/>
<path d="M2200 601 c-122 -38 -197 -128 -207 -250 -11 -128 46 -234 151 -286
160 -78 338 5 388 181 37 128 -30 278 -149 334 -50 23 -141 34 -183 21z"/>
</g>
</svg>
