<?xml version="1.0" encoding="UTF-8" standalone="no"?>
<!-- Created with Inkscape (http://www.inkscape.org/) -->

<svg
   xmlns:dc="http://purl.org/dc/elements/1.1/"
   xmlns:cc="http://creativecommons.org/ns#"
   xmlns:rdf="http://www.w3.org/1999/02/22-rdf-syntax-ns#"
   xmlns:svg="http://www.w3.org/2000/svg"
   xmlns="http://www.w3.org/2000/svg"
   xmlns:sodipodi="http://sodipodi.sourceforge.net/DTD/sodipodi-0.dtd"
   xmlns:inkscape="http://www.inkscape.org/namespaces/inkscape"
   id="svg3355"
   version="1.1"
   inkscape:version="0.91 r13725"
   xml:space="preserve"
   width="127.625"
   height="127.625"
   viewBox="0 0 127.625 127.625"
   sodipodi:docname="ros_logo_white.svg"
   inkscape:export-filename="/home/david/Downloads/ros-press-kit/ros_logo_white_40px.png"
   inkscape:export-xdpi="28.20764"
   inkscape:export-ydpi="28.20764"><metadata
     id="metadata3361"><rdf:RDF><cc:Work
         rdf:about=""><dc:format>image/svg+xml</dc:format><dc:type
           rdf:resource="http://purl.org/dc/dcmitype/StillImage" /><dc:title></dc:title></cc:Work></rdf:RDF></metadata><defs
     id="defs3359" /><sodipodi:namedview
     pagecolor="#ffffff"
     bordercolor="#666666"
     borderopacity="1"
     objecttolerance="10"
     gridtolerance="10"
     guidetolerance="10"
     inkscape:pageopacity="0"
     inkscape:pageshadow="2"
     inkscape:window-width="1855"
     inkscape:window-height="951"
     id="namedview3357"
     showgrid="false"
     inkscape:zoom="4.949839"
     inkscape:cx="55.164186"
     inkscape:cy="74.593219"
     inkscape:window-x="65"
     inkscape:window-y="24"
     inkscape:window-maximized="1"
     inkscape:current-layer="g3363" /><g
     id="g3363"
     inkscape:groupmode="layer"
     inkscape:label="ink_ext_XXXXXX"
     transform="matrix(1.25,0,0,-1.25,0,127.625)"><g
       id="g3365"
       transform="matrix(0.1,0,0,0.1,1.8285376,0)"
       style="stroke:#ffffff;fill:#ffffff"
       inkscape:export-xdpi="300"
       inkscape:export-ydpi="300"><path
         d="M 218.406,895.094 C 218.406,832.77 169.512,782.242 109.199,782.242 48.8984,782.242 0,832.77 0,895.094 c 0,62.312 48.8984,112.856 109.199,112.856 60.313,0 109.207,-50.544 109.207,-112.856"
         style="fill:#ffffff;fill-opacity:1;fill-rule:nonzero;stroke:#ffffff"
         id="path3367"
         inkscape:connector-curvature="0" /><path
         d="M 218.406,510.512 C 218.406,448.188 169.512,397.66 109.199,397.66 48.8984,397.66 0,448.188 0,510.512 c 0,62.324 48.8984,112.851 109.199,112.851 60.313,0 109.207,-50.527 109.207,-112.851"
         style="fill:#ffffff;fill-opacity:1;fill-rule:nonzero;stroke:#ffffff"
         id="path3369"
         inkscape:connector-curvature="0" /><path
         d="M 218.406,125.934 C 218.406,63.6172 169.512,13.0781 109.199,13.0781 48.8984,13.0781 0,63.6172 0,125.934 c 0,62.312 48.8984,112.851 109.199,112.851 60.313,0 109.207,-50.539 109.207,-112.851"
         style="fill:#ffffff;fill-opacity:1;fill-rule:nonzero;stroke:#ffffff"
         id="path3371"
         inkscape:connector-curvature="0" /><path
         d="m 599.473,510.512 c 0,-62.324 -48.899,-112.852 -109.207,-112.852 -60.305,0 -109.203,50.528 -109.203,112.852 0,62.324 48.898,112.851 109.203,112.851 60.308,0 109.207,-50.527 109.207,-112.851"
         style="fill:#ffffff;fill-opacity:1;fill-rule:nonzero;stroke:#ffffff;stroke-opacity:1"
         id="path3373"
         inkscape:connector-curvature="0" /><path
         d="m 599.473,895.094 c 0,-62.324 -48.899,-112.852 -109.207,-112.852 -60.305,0 -109.203,50.528 -109.203,112.852 0,62.312 48.898,112.856 109.203,112.856 60.308,0 109.207,-50.544 109.207,-112.856"
         style="fill:#ffffff;fill-opacity:1;fill-rule:nonzero;stroke:#ffffff"
         id="path3375"
         inkscape:connector-curvature="0" /><path
         d="m 980.535,510.512 c 0,-62.324 -48.894,-112.852 -109.207,-112.852 -60.305,0 -109.199,50.528 -109.199,112.852 0,62.324 48.894,112.851 109.199,112.851 60.313,0 109.207,-50.527 109.207,-112.851"
         style="fill:#ffffff;fill-opacity:1;fill-rule:nonzero;stroke:#ffffff;stroke-opacity:1"
         id="path3377"
         inkscape:connector-curvature="0" /><path
         d="m 980.535,895.094 c 0,-62.324 -48.894,-112.852 -109.207,-112.852 -60.305,0 -109.199,50.528 -109.199,112.852 0,62.312 48.894,112.856 109.199,112.856 60.313,0 109.207,-50.544 109.207,-112.856"
         style="fill:#ffffff;fill-opacity:1;fill-rule:nonzero;stroke:#ffffff"
         id="path3379"
         inkscape:connector-curvature="0" /><path
         d="m 980.535,125.934 c 0,-62.3168 -48.894,-112.8559 -109.207,-112.8559 -60.305,0 -109.199,50.5391 -109.199,112.8559 0,62.312 48.894,112.851 109.199,112.851 60.313,0 109.207,-50.539 109.207,-112.851"
         style="fill:#ffffff;fill-opacity:1;fill-rule:nonzero;stroke:#ffffff"
         id="path3381"
         inkscape:connector-curvature="0" /><path
         d="m 599.473,125.934 c 0,-62.3168 -48.899,-112.8559 -109.207,-112.8559 -60.305,0 -109.203,50.5391 -109.203,112.8559 0,62.312 48.898,112.851 109.203,112.851 60.308,0 109.207,-50.539 109.207,-112.851"
         style="fill:#ffffff;fill-opacity:1;fill-rule:nonzero;stroke:#ffffff"
         id="path3383"
         inkscape:connector-curvature="0" /><path
         d="m 2605.63,872.555 c -166.95,0 -258.63,-140.004 -258.63,-362.032 0,-222.031 91.68,-362.031 258.63,-362.031 168.32,0 260,140 260,362.031 0,222.028 -91.68,362.032 -260,362.032 z M 2605.63,0 c -247.68,0 -405.05,210.719 -405.05,510.523 0,299.805 157.37,510.517 405.05,510.517 249.05,0 406.41,-210.712 406.41,-510.517 C 3012.04,210.719 2854.68,0 2605.63,0"
         style="fill:#ffffff;fill-opacity:1;fill-rule:nonzero;stroke:#ffffff"
         id="path3387"
         inkscape:connector-curvature="0" /><path
         d="m 3506.08,0 c -139.59,0 -260,62.2227 -340.74,159.801 l 102.64,103.242 c 64.31,-72.129 158.73,-117.383 249.04,-117.383 134.1,0 198.42,48.086 198.42,144.246 0,76.367 -56.09,114.551 -216.21,164.055 -202.52,62.215 -299.67,114.539 -299.67,291.312 0,171.118 139.57,275.767 316.09,275.767 130,0 228.52,-49.497 313.36,-134.345 L 3727.76,780.629 c -60.21,63.641 -128.63,94.754 -223.04,94.754 -112.23,0 -160.12,-56.57 -160.12,-123.035 0,-69.297 43.79,-103.239 209.37,-154.145 C 3742.8,538.805 3860.5,476.582 3860.5,299.809 3860.5,121.617 3751.03,0 3506.08,0"
         style="fill:#ffffff;fill-opacity:1;fill-rule:nonzero;stroke:#ffffff"
         id="path3389"
         inkscape:connector-curvature="0" /></g><ellipse
       style="color:#000000;clip-rule:nonzero;display:inline;overflow:visible;visibility:visible;opacity:1;isolation:auto;mix-blend-mode:normal;color-interpolation:sRGB;color-interpolation-filters:linearRGB;solid-color:#000000;solid-opacity:1;fill:none;fill-opacity:0;fill-rule:evenodd;stroke:#ffffff;stroke-width:6.23539782;stroke-linecap:butt;stroke-linejoin:miter;stroke-miterlimit:4;stroke-dasharray:none;stroke-dashoffset:0;stroke-opacity:1;color-rendering:auto;image-rendering:auto;shape-rendering:auto;text-rendering:auto;enable-background:accumulate"
       id="path4193"
       cx="50.970478"
       cy="-51.23827"
       transform="scale(1,-1)"
       r="35.630188" /><ellipse
       style="color:#000000;clip-rule:nonzero;display:inline;overflow:visible;visibility:visible;opacity:1;isolation:auto;mix-blend-mode:normal;color-interpolation:sRGB;color-interpolation-filters:linearRGB;solid-color:#000000;solid-opacity:1;fill:#232e4a;fill-opacity:0;fill-rule:evenodd;stroke:#ffffff;stroke-width:6.36250162;stroke-linecap:butt;stroke-linejoin:miter;stroke-miterlimit:4;stroke-dasharray:none;stroke-dashoffset:0;stroke-opacity:1;color-rendering:auto;image-rendering:auto;shape-rendering:auto;text-rendering:auto;enable-background:accumulate"
       id="path4193-3"
       transform="scale(1,-1)"
       ry="36.789627"
       rx="19.354937"
       cy="-51.427616"
       cx="50.828461" /><rect
       style="opacity:1;fill:#232e4a;fill-opacity:0;stroke:#ffffff;stroke-width:6.61679983;stroke-miterlimit:4;stroke-dasharray:none;stroke-opacity:1"
       id="rect4225"
       width="0.91426879"
       height="76.798576"
       x="50.54108"
       y="-87.446564"
       transform="scale(1,-1)" /><rect
       style="opacity:1;fill:#000000;fill-opacity:0;stroke:#ffffff;stroke-width:6.61679983;stroke-miterlimit:4;stroke-dasharray:none;stroke-opacity:1"
       id="rect4298"
       width="132.36795"
       height="125.74147"
       x="-11.636742"
       y="-115.88255"
       transform="scale(1,-1)" /></g></svg>